<svg xmlns="http://www.w3.org/2000/svg" width="34.795" height="34.653" viewBox="0 0 34.795 34.653">
  <path id="Path_125" data-name="Path 125" d="M593,333.092l-1.694-2.3a13.737,13.737,0,0,0,1.663-2.253l2.736.878a.967.967,0,0,0,1.208-.605l1.251-3.8a.944.944,0,0,0-.614-1.19l-2.735-.874c.045-.455.07-.921.07-1.394s-.024-.935-.07-1.393l2.735-.876a.94.94,0,0,0,.614-1.186l-1.251-3.8a.968.968,0,0,0-1.208-.6l-2.736.874a13.75,13.75,0,0,0-1.663-2.253L593,310.036a.938.938,0,0,0-.214-1.319l-3.276-2.349a.974.974,0,0,0-1.335.212l-1.688,2.29a14,14,0,0,0-2.694-.86v-2.832a.953.953,0,0,0-.955-.941h-4.051a.951.951,0,0,0-.955.941v2.832a13.993,13.993,0,0,0-2.694.86l-1.686-2.29a.974.974,0,0,0-1.335-.212l-3.278,2.349a.936.936,0,0,0-.214,1.319l1.694,2.292a13.773,13.773,0,0,0-1.666,2.253l-2.733-.874a.968.968,0,0,0-1.207.6l-1.251,3.8a.941.941,0,0,0,.614,1.186l2.735.876c-.045.459-.069.925-.069,1.393s.024.938.069,1.394l-2.735.874a.944.944,0,0,0-.614,1.19l1.251,3.8a.967.967,0,0,0,1.207.605l2.733-.878a13.76,13.76,0,0,0,1.666,2.253l-1.694,2.3a.932.932,0,0,0,.214,1.315l3.278,2.344a.964.964,0,0,0,1.335-.21l1.686-2.287a14.336,14.336,0,0,0,2.694.86v2.835a.951.951,0,0,0,.955.941h4.051a.953.953,0,0,0,.955-.941v-2.835a14.338,14.338,0,0,0,2.694-.86l1.688,2.287a.963.963,0,0,0,1.335.21l3.276-2.344a.935.935,0,0,0,.214-1.315m-12.187-5.13a6.4,6.4,0,1,1,6.5-6.4,6.448,6.448,0,0,1-6.5,6.4" transform="translate(-563.419 -304.238)" fill="#ff6b00"/>
</svg>
