<svg id="Group_2754" data-name="Group 2754" xmlns="http://www.w3.org/2000/svg" width="34.315" height="33.03" viewBox="0 0 34.315 33.03">
  <path id="Path_127" data-name="Path 127" d="M739.3,340.946V309.439c-3.827,1.2-6.863,7.925-6.863,15.75s3.036,14.553,6.863,15.757" transform="translate(-723.361 -309.044)" fill="#00ac69"/>
  <path id="Path_128" data-name="Path 128" d="M735.869,309.439v31.507c3.83-1.2,6.863-7.93,6.863-15.753s-3.033-14.55-6.863-15.753" transform="translate(-717.485 -309.044)" fill="#00ac69"/>
  <path id="Path_129" data-name="Path 129" d="M735.7,325.441c0-7.049,2.163-13.047,5.412-16.147a17.181,17.181,0,0,0,.87,33.03c-3.729-2.8-6.282-9.228-6.282-16.883" transform="translate(-729.083 -309.294)" fill="#00ac69"/>
  <path id="Path_130" data-name="Path 130" d="M737.859,309.294c3.255,3.1,5.412,9.1,5.412,16.147,0,7.655-2.547,14.079-6.282,16.883a17.181,17.181,0,0,0,.871-33.03" transform="translate(-715.574 -309.294)" fill="#00ac69"/>
</svg>
