<svg xmlns="http://www.w3.org/2000/svg" width="33.82" height="38.234" viewBox="0 0 33.82 38.234">
  <path id="Path_131" data-name="Path 131" d="M684.8,239.847H683.8c.007-.181.011-.365.011-.553a12.964,12.964,0,0,0-25.925,0c0,.189.007.372.016.553h-1.573a2.653,2.653,0,0,0-2.673,2.628v19.683a2.652,2.652,0,0,0,2.673,2.628H684.8a2.649,2.649,0,0,0,2.669-2.628V242.475a2.649,2.649,0,0,0-2.669-2.628m-22.414-.553a8.456,8.456,0,0,1,16.91,0c0,.189-.016.372-.033.553H662.421c-.013-.181-.031-.365-.031-.553" transform="translate(-653.652 -226.552)" fill="#76bc21"/>
</svg>
