<svg xmlns="http://www.w3.org/2000/svg" width="714.228" height="1007.02" viewBox="0 0 714.228 1007.02">
  <g id="Group_2774" data-name="Group 2774" transform="translate(-944.832 -356.975)" opacity="0.67" style="isolation: isolate">
    <g id="Vector_Smart_Object" data-name="Vector Smart Object" transform="translate(945.626 357.625)">
      <path id="Path_1" data-name="Path 1" d="M1305.758,667.017l-162.5-154.192a24.4,24.4,0,0,0-16.79-6.624h-145.6c-10.33,0-15.472,12.033-8.126,19.017l165.836,157.594L972.621,840.834c-7.325,6.976-2.206,18.981,8.1,19.008l29.875.079h115.854a24.392,24.392,0,0,0,16.812-6.647L1305.78,698.631A21.627,21.627,0,0,0,1305.758,667.017Z" transform="translate(-969.174 -256.613)" fill="none" stroke="#fff" stroke-miterlimit="10" stroke-width="1.3"/>
      <path id="Path_2" data-name="Path 2" d="M1572.03,808.4l-205.789,197.831a4.72,4.72,0,0,1-6.494,0L1153.96,808.4a4.294,4.294,0,0,1,0-6.243l205.787-197.831a4.723,4.723,0,0,1,6.494,0L1572.03,802.153A4.3,4.3,0,0,1,1572.03,808.4Z" transform="translate(-860.589 -205.163)" fill="none" stroke="#fff" stroke-miterlimit="10" stroke-width="1.3"/>
      <path id="Path_3" data-name="Path 3" d="M1141.538,1115.253c95.383.243,173.023-74,173.274-165.689S1237.831,783.24,1142.448,783s-173.023,74-173.274,165.69S1046.156,1115.011,1141.538,1115.253Z" transform="translate(-969.174 -109.534)" fill="none" stroke="#fff" stroke-miterlimit="10" stroke-width="1.3"/>
      <path id="Path_4" data-name="Path 4" d="M1551.589,496.634l-9.6-28.421,0,0-.022-.059c-3.288-9.735-13.821-15.4-24.17-13l-108.03,10.126L1393.3,361.889c-.516-10.453-9.483-18.673-20.368-18.673h-31.138c-10.887,0-19.852,8.219-20.37,18.673l-16.461,103.388-108.029-10.126c-10.353-2.4-20.882,3.264-24.172,13l-9.628,28.484c-3.433,10.16,2.226,21.092,12.729,24.582l94.635,41.868-60.307,100.441a19.008,19.008,0,0,0-3.336,10.641c0,.217.056.427.062.646a19,19,0,0,0,1.325,6.547,19.62,19.62,0,0,0,7.022,8.767l15.2,10.614,9.825,6.862a20.946,20.946,0,0,0,28.043-3.779l89.034-76.492,89.034,76.492a20.949,20.949,0,0,0,28.046,3.779l9.825-6.862,15.2-10.614a19.632,19.632,0,0,0,7.02-8.767,18.966,18.966,0,0,0,1.327-6.547c.006-.218.062-.429.06-.646a18.98,18.98,0,0,0-3.336-10.641l-60.307-100.441,94.638-41.868a19.918,19.918,0,0,0,12.978-13.261A18.8,18.8,0,0,0,1551.589,496.634Z" transform="translate(-854.957 -343.217)" fill="none" stroke="#fff" stroke-miterlimit="10" stroke-width="1.3"/>
    </g>
    <path id="Path_5" data-name="Path 5" d="M1305.758,667.017l-162.5-154.192a24.4,24.4,0,0,0-16.79-6.624h-145.6c-10.33,0-15.472,12.033-8.126,19.017l165.836,157.594L972.621,840.834c-7.325,6.976-2.206,18.981,8.1,19.008l29.875.079h115.854a24.392,24.392,0,0,0,16.812-6.647L1305.78,698.631A21.627,21.627,0,0,0,1305.758,667.017Z" transform="translate(-23.548 101.013)" fill="none" stroke="#fff" stroke-miterlimit="10" stroke-width="1.3"/>
    <path id="Path_6" data-name="Path 6" d="M1572.03,808.4l-205.789,197.831a4.72,4.72,0,0,1-6.494,0L1153.96,808.4a4.294,4.294,0,0,1,0-6.243l205.787-197.831a4.723,4.723,0,0,1,6.494,0L1572.03,802.153A4.3,4.3,0,0,1,1572.03,808.4Z" transform="translate(85.037 152.463)" fill="none" stroke="#fff" stroke-miterlimit="10" stroke-width="1.3"/>
    <path id="Path_7" data-name="Path 7" d="M1141.538,1115.253c95.383.243,173.023-74,173.274-165.689S1237.831,783.24,1142.448,783s-173.023,74-173.274,165.69S1046.156,1115.011,1141.538,1115.253Z" transform="translate(-23.548 248.091)" fill="none" stroke="#fff" stroke-miterlimit="10" stroke-width="1.3"/>
    <path id="Path_8" data-name="Path 8" d="M1551.589,496.634l-9.6-28.421,0,0-.022-.059c-3.288-9.735-13.821-15.4-24.17-13l-108.03,10.126L1393.3,361.889c-.516-10.453-9.483-18.673-20.368-18.673h-31.138c-10.887,0-19.852,8.219-20.37,18.673l-16.461,103.388-108.029-10.126c-10.353-2.4-20.882,3.264-24.172,13l-9.628,28.484c-3.433,10.16,2.226,21.092,12.729,24.582l94.635,41.868-60.307,100.441a19.008,19.008,0,0,0-3.336,10.641c0,.217.056.427.062.646a19,19,0,0,0,1.325,6.547,19.62,19.62,0,0,0,7.022,8.767l15.2,10.614,9.825,6.862a20.946,20.946,0,0,0,28.043-3.779l89.034-76.492,89.034,76.492a20.949,20.949,0,0,0,28.046,3.779l9.825-6.862,15.2-10.614a19.632,19.632,0,0,0,7.02-8.767,18.966,18.966,0,0,0,1.327-6.547c.006-.218.062-.429.06-.646a18.98,18.98,0,0,0-3.336-10.641l-60.307-100.441,94.638-41.868a19.918,19.918,0,0,0,12.978-13.261A18.8,18.8,0,0,0,1551.589,496.634Z" transform="translate(90.669 14.409)" fill="none" stroke="#fff" stroke-miterlimit="10" stroke-width="1.3"/>
  </g>
</svg>
