<svg xmlns="http://www.w3.org/2000/svg" width="247" height="54.453" viewBox="0 0 247 54.453"><g transform="translate(-2785 -2038)"><path d="M251.84,31.14a18.348,18.348,0,1,0,12.3,31.94v4.756h6.012V49.489A18.349,18.349,0,0,0,251.84,31.14m12.3,18.348a12.3,12.3,0,1,1-12.3-12.322,12.3,12.3,0,0,1,12.3,12.322" transform="translate(2594.102 2015.753)" fill="#fff"/><path d="M292.478,31.14A18.348,18.348,0,0,0,274.17,49.488V76.7h6.011V63.08a18.329,18.329,0,1,0,12.3-31.94m12.3,18.348a12.3,12.3,0,1,1-12.3-12.322,12.3,12.3,0,0,1,12.3,12.322" transform="translate(2593.135 2015.753)" fill="#fff"/><path d="M333.117,31.14a18.349,18.349,0,0,0-18.309,18.348V76.7h6.013V63.08a18.329,18.329,0,1,0,12.3-31.94m12.3,18.348a12.3,12.3,0,1,1-12.3-12.322,12.3,12.3,0,0,1,12.3,12.322" transform="translate(2592.169 2015.753)" fill="#fff"/><path d="M383.044,31.139a18.349,18.349,0,1,0,12.3,31.94v4.757h6.012V49.489a18.349,18.349,0,0,0-18.308-18.35m0,30.672a12.323,12.323,0,1,1,12.3-12.322,12.323,12.323,0,0,1-12.3,12.322" transform="translate(2590.981 2015.753)" fill="#fff"/><rect width="6.012" height="45.589" transform="translate(2946.648 2038)" fill="#fff"/><path d="M423.682,30.924a18.332,18.332,0,0,0-12.3,4.755V22.063H405.37V49.272a18.308,18.308,0,1,0,18.308-18.348m12.3,18.348A12.3,12.3,0,1,1,423.682,36.95a12.3,12.3,0,0,1,12.291,12.322" transform="translate(2590.014 2015.969)" fill="#fff"/><path d="M207.34,44.579l-8.44-8.347a1.232,1.232,0,0,0-.871-.359h-7.561a.6.6,0,0,0-.422,1.028l8.612,8.533-8.618,8.555a.6.6,0,0,0,.42,1.029l1.552.005h6.015a1.247,1.247,0,0,0,.874-.36l8.438-8.372a1.205,1.205,0,0,0,0-1.712" transform="translate(2595.141 2015.641)" fill="#e1251b"/><path d="M226.378,56.037l-9.067,9.088a1.381,1.381,0,0,1-1.956,0l-9.069-9.088a1.391,1.391,0,0,1,0-1.961l9.069-9.087a1.381,1.381,0,0,1,1.956,0l9.067,9.087a1.388,1.388,0,0,1,0,1.961" transform="translate(2594.76 2015.433)" fill="#00ac69"/><path d="M198.813,77.368a8.994,8.994,0,1,0-8.951-9.018,8.994,8.994,0,0,0,8.951,9.018" transform="translate(2595.141 2015.081)" fill="#2a7de1"/><path d="M226.427,30.337l-.5-1.539h0a1.059,1.059,0,0,0-1.255-.7l-5.61.548-.855-5.6a1.06,1.06,0,0,0-1.058-1.012h-1.617a1.062,1.062,0,0,0-1.058,1.012l-.855,5.6-5.61-.548a1.059,1.059,0,0,0-1.255.7l-.5,1.543a1.063,1.063,0,0,0,.66,1.331l4.915,2.266L208.7,39.372a1.065,1.065,0,0,0-.173.576v.036a1.059,1.059,0,0,0,.069.354,1.041,1.041,0,0,0,.365.474l.789.575.51.371a1.056,1.056,0,0,0,1.456-.2l4.625-4.141,4.623,4.141a1.055,1.055,0,0,0,1.455.2l.511-.371.789-.575a1.049,1.049,0,0,0,.365-.474,1.06,1.06,0,0,0,.07-.354c0-.013,0-.024,0-.036a1.055,1.055,0,0,0-.173-.576l-3.131-5.438,4.914-2.266a1.066,1.066,0,0,0,.674-.719,1.055,1.055,0,0,0-.013-.612" transform="translate(2594.752 2015.97)" fill="#ffb71b"/></g></svg>