<svg xmlns="http://www.w3.org/2000/svg" width="247" height="54.45" viewBox="0 0 247 54.45">
  <g id="Vector_Smart_Object" data-name="Vector Smart Object" transform="translate(-189.862 -22.03)">
    <path id="Path_115" data-name="Path 115" d="M251.84,31.14a18.348,18.348,0,1,0,12.295,31.94v4.756h6.012V49.988l0-.249c0-.083,0-.167,0-.25A18.349,18.349,0,0,0,251.84,31.14m12.295,18.348A12.3,12.3,0,1,1,251.84,37.166a12.322,12.322,0,0,1,12.295,12.322" transform="translate(-1.039 -0.217)" fill="#4d4d4d"/>
    <path id="Path_116" data-name="Path 116" d="M292.478,31.14A18.348,18.348,0,0,0,274.17,49.488V76.7h6.011V63.08a18.329,18.329,0,1,0,12.3-31.94m12.295,18.348a12.3,12.3,0,1,1-12.295-12.322,12.322,12.322,0,0,1,12.295,12.322" transform="translate(-2.006 -0.217)" fill="#4d4d4d"/>
    <path id="Path_117" data-name="Path 117" d="M333.117,31.14a18.349,18.349,0,0,0-18.309,18.348V76.7h6.013V63.08a18.329,18.329,0,1,0,12.3-31.94m12.295,18.348a12.3,12.3,0,1,1-12.295-12.322,12.322,12.322,0,0,1,12.295,12.322" transform="translate(-2.972 -0.217)" fill="#4d4d4d"/>
    <path id="Path_118" data-name="Path 118" d="M383.044,31.139a18.349,18.349,0,1,0,12.295,31.94v4.757h6.012V49.987l0-.248c0-.084,0-.167,0-.25a18.349,18.349,0,0,0-18.307-18.35m0,30.672a12.323,12.323,0,1,1,12.295-12.322,12.322,12.322,0,0,1-12.295,12.322" transform="translate(-4.16 -0.217)" fill="#2a7de1"/>
    <rect id="Rectangle_8" data-name="Rectangle 8" width="6.012" height="45.589" transform="translate(351.507 22.03)" fill="#2a7de1"/>
    <path id="Path_119" data-name="Path 119" d="M423.682,30.924a18.332,18.332,0,0,0-12.3,4.755V22.063h-6.012V49.272a18.308,18.308,0,1,0,18.308-18.348m12.295,18.348A12.3,12.3,0,1,1,423.682,36.95a12.322,12.322,0,0,1,12.295,12.322" transform="translate(-5.127 -0.001)" fill="#2a7de1"/>
    <path id="Path_120" data-name="Path 120" d="M207.34,44.579,198.9,36.232a1.232,1.232,0,0,0-.871-.359h-7.561a.6.6,0,0,0-.422,1.028l8.612,8.533-8.618,8.555a.6.6,0,0,0,.42,1.029l1.552.005h6.015a1.247,1.247,0,0,0,.874-.36l8.438-8.372a1.205,1.205,0,0,0,0-1.712" transform="translate(0 -0.329)" fill="#e1251b"/>
    <path id="Path_121" data-name="Path 121" d="M226.378,56.037l-9.067,9.088a1.381,1.381,0,0,1-1.956,0l-9.069-9.088a1.391,1.391,0,0,1,0-1.961l9.069-9.087a1.381,1.381,0,0,1,1.956,0l9.067,9.087a1.388,1.388,0,0,1,0,1.961" transform="translate(-0.381 -0.537)" fill="#00ac69"/>
    <path id="Path_122" data-name="Path 122" d="M198.813,77.368a8.994,8.994,0,1,0-8.951-9.018,8.985,8.985,0,0,0,8.951,9.018" transform="translate(0 -0.889)" fill="#2a7de1"/>
    <path id="Path_123" data-name="Path 123" d="M226.427,30.337l-.5-1.539v0a1.059,1.059,0,0,0-1.255-.7l-5.61.548-.855-5.6a1.06,1.06,0,0,0-1.058-1.012h-1.617a1.062,1.062,0,0,0-1.058,1.012l-.855,5.6-5.61-.548a1.059,1.059,0,0,0-1.255.7l-.5,1.543a1.063,1.063,0,0,0,.66,1.331l4.915,2.266L208.7,39.372a1.065,1.065,0,0,0-.173.576c0,.012,0,.023,0,.036a1.059,1.059,0,0,0,.069.354,1.041,1.041,0,0,0,.365.474l.789.575.51.371a1.056,1.056,0,0,0,1.456-.2l4.625-4.141,4.623,4.141a1.055,1.055,0,0,0,1.455.2l.511-.371.789-.575a1.049,1.049,0,0,0,.365-.474,1.061,1.061,0,0,0,.07-.354c0-.013,0-.024,0-.036a1.055,1.055,0,0,0-.173-.576l-3.131-5.438,4.914-2.266a1.066,1.066,0,0,0,.674-.719,1.055,1.055,0,0,0-.013-.612" transform="translate(-0.389)" fill="#ffb71b"/>
  </g>
</svg>
